<?xml version="1.0" standalone="no"?><!DOCTYPE svg PUBLIC "-//W3C//DTD SVG 1.1//EN" "http://www.w3.org/Graphics/SVG/1.1/DTD/svg11.dtd"><svg t="1564066042145" class="icon" viewBox="0 0 1024 1024" version="1.1" xmlns="http://www.w3.org/2000/svg" p-id="2939" xmlns:xlink="http://www.w3.org/1999/xlink" width="200" height="200"><defs><style type="text/css"></style></defs><path d="M922.5472 837.71904l-191.49824-191.50848c41.32352-58.20416 65.8944-129.11616 65.8944-205.80352 0-196.57216-159.9232-356.50048-356.50048-356.50048-196.60288 0-356.56192 159.93344-356.56192 356.50048 0 196.60288 159.95904 356.5312 356.56192 356.5312 76.66176 0 147.56864-24.576 205.7728-65.8944l191.50336 191.49824a59.8016 59.8016 0 0 0 42.40896 17.57696c15.35488 0 30.69952-5.8624 42.41408-17.57696 23.44448-23.43424 23.44448-61.3888 0.00512-84.82304z m-718.6944-397.312c0-130.40128 106.15296-236.52352 236.58496-236.52352 130.43712 0 236.52352 106.12224 236.52352 236.52352 0 130.43712-106.09152 236.55424-236.52352 236.55424-130.432 0-236.58496-106.11712-236.58496-236.55424z" p-id="2940" fill="#585958"></path></svg>